<?xml version="1.0" encoding="utf-8"?>
<!-- Generator: Adobe Illustrator 16.0.0, SVG Export Plug-In . SVG Version: 6.00 Build 0)  -->
<!DOCTYPE svg PUBLIC "-//W3C//DTD SVG 1.1//EN" "http://www.w3.org/Graphics/SVG/1.1/DTD/svg11.dtd" [
	<!ENTITY ns_extend "http://ns.adobe.com/Extensibility/1.0/">
	<!ENTITY ns_ai "http://ns.adobe.com/AdobeIllustrator/10.0/">
	<!ENTITY ns_graphs "http://ns.adobe.com/Graphs/1.0/">
	<!ENTITY ns_vars "http://ns.adobe.com/Variables/1.0/">
	<!ENTITY ns_imrep "http://ns.adobe.com/ImageReplacement/1.0/">
	<!ENTITY ns_sfw "http://ns.adobe.com/SaveForWeb/1.0/">
	<!ENTITY ns_custom "http://ns.adobe.com/GenericCustomNamespace/1.0/">
	<!ENTITY ns_adobe_xpath "http://ns.adobe.com/XPath/1.0/">
]>
<svg version="1.1" id="Ebene_1" xmlns:x="&ns_extend;" xmlns:i="&ns_ai;" xmlns:graph="&ns_graphs;"
	 xmlns="http://www.w3.org/2000/svg" xmlns:xlink="http://www.w3.org/1999/xlink" x="0px" y="0px" width="283.46px"
	 height="283.46px" viewBox="0 0 283.46 283.46" enable-background="new 0 0 283.46 283.46" xml:space="preserve">
<metadata>
	<sfw  xmlns="&ns_sfw;">
		<slices></slices>
		<sliceSourceBounds  width="547.067" height="278.5" y="-279.5" x="16.933" bottomLeftOrigin="true"></sliceSourceBounds>
	</sfw>
</metadata>
<circle fill="#578D35" cx="253.13" cy="101.174" r="3.902"/>
<polyline fill="none" stroke="#757575" stroke-miterlimit="10" points="78.5,82.5 92.311,82.5 134.277,40.5 157.78,40.5 
	169.75,28.5 262.5,28.5 "/>
<polyline fill="none" stroke="#757575" stroke-miterlimit="10" points="78.668,91.298 80.04,92.5 87.186,92.5 137.063,42.5 
	160.11,42.5 171.623,31.5 260.5,31.5 "/>
<polyline fill="none" stroke="#757575" stroke-miterlimit="10" points="78.5,95.5 89.748,95.5 139.704,45.5 161.274,45.5 
	173.371,33.5 259.5,33.5 "/>
<polyline fill="none" stroke="#757575" stroke-miterlimit="10" points="78.5,104.5 85.787,104.5 142.15,47.5 163.372,47.5 
	175.041,36.5 259.5,36.5 "/>
<polyline fill="none" stroke="#757575" stroke-miterlimit="10" points="78.5,108.5 86.02,108.5 144.363,50.5 164.77,50.5 
	176.633,38.5 259.5,38.5 "/>
<polyline fill="none" stroke="#757575" stroke-miterlimit="10" points="78.555,117.06 80.079,118.5 84.39,118.5 88,115.482 
	88,110.5 89.748,110.5 146.033,54.5 166.866,54.5 178.069,42.5 245.5,42.5 "/>
<polyline fill="none" stroke="#757575" stroke-miterlimit="10" points="78.5,121.5 86.253,121.5 92,116.521 92,112.124 
	147.732,56.5 168.964,56.5 179.681,45.5 233.501,45.5 241.335,53.5 250.5,53.5 "/>
<polyline fill="none" stroke="#757575" stroke-miterlimit="10" points="77.5,130.5 78.365,130.5 80.545,132.5 84.855,132.5 
	96,122.055 96,112.59 149.373,58.5 170.361,58.5 180.865,48.5 230.006,48.5 242.005,60.5 249.5,60.5 "/>
<polyline fill="none" stroke="#757575" stroke-miterlimit="10" points="75.5,144.5 78.555,144.5 80.099,145.5 87.186,145.5 
	99,133.384 99,113.755 151.78,61.5 172.924,61.5 183.623,50.5 224.647,50.5 240.971,66.5 249.5,66.5 "/>
<polyline fill="none" stroke="#757575" stroke-miterlimit="10" points="270.021,80.279 261.227,71.5 239.034,71.5 221.386,53.5 
	185.021,53.5 174.556,64.5 154.072,64.5 103,115.386 103,134.471 87.418,149.5 80.079,149.5 78.671,148.219 74.604,148.357 "/>
<polyline fill="none" stroke="#757575" stroke-miterlimit="10" points="269.992,84.745 258.896,73.5 237.636,73.5 219.289,55.5 
	187.078,55.5 175.953,66.5 156.033,66.5 107,116.085 107,135.394 86.952,154.5 80.545,154.5 78.434,152.767 75.827,152.729 "/>
<polyline fill="none" stroke="#757575" stroke-miterlimit="10" points="269.92,89.434 257.032,76.5 235.656,76.5 217.425,58.5 
	188.068,58.5 177.584,68.5 158.433,68.5 110,117.482 110,136.529 87.418,158.5 80.254,158.5 78.419,157.044 73.847,157.157 "/>
<polyline fill="none" stroke="#757575" stroke-miterlimit="10" points="269.359,95.066 254.703,80.5 233.908,80.5 215.328,61.5 
	190.379,61.5 179.681,72.5 160.57,72.5 114,118.881 114,137.17 87.651,163.5 80.329,163.5 78.133,161.668 75.303,161.737 "/>
<polyline fill="none" stroke="#757575" stroke-miterlimit="10" points="78.5,170.5 87.884,170.5 148,230.423 148,257.508 
	168.234,277.842 "/>
<polyline fill="none" stroke="#757575" stroke-miterlimit="10" points="78.5,175.5 86.72,175.5 144,231.898 144,258.439 
	163.217,278.139 "/>
<polyline fill="none" stroke="#757575" stroke-miterlimit="10" points="78.5,179.5 86.02,179.5 140,233.297 140,259.139 
	158.464,277.736 "/>
<polyline fill="none" stroke="#757575" stroke-miterlimit="10" points="78.5,184.5 85.321,184.5 136,234.617 136,260.07 
	153.9,278.256 "/>
<polyline fill="none" stroke="#757575" stroke-miterlimit="10" points="78.5,188.5 84.39,188.5 132,235.782 132,260.537 
	149.244,277.948 "/>
<polyline fill="none" stroke="#757575" stroke-miterlimit="10" points="78.5,192.5 83.923,192.5 128,236.675 128,262.168 
	144.176,278.277 "/>
<line fill="none" stroke="#757575" stroke-width="11" stroke-linecap="round" stroke-miterlimit="10" x1="19" y1="7" x2="19" y2="129"/>
<polyline fill="none" stroke="#2F2F2F" stroke-width="12" stroke-linecap="round" stroke-linejoin="round" stroke-miterlimit="10" points="
	98.5,7 98.5,22.424 48.5,71.822 48.5,163.614 20.846,189.452 "/>
<line fill="none" stroke="#757575" stroke-width="11" stroke-linecap="round" stroke-miterlimit="10" x1="19" y1="181" x2="19" y2="262"/>
<rect x="64.5" y="76" fill="#2F2F2F" width="14" height="3"/>
<rect x="64.5" y="81" fill="#2F2F2F" width="14" height="2"/>
<rect x="64.5" y="85" fill="#2F2F2F" width="14" height="3"/>
<rect x="64.5" y="89" fill="#2F2F2F" width="14" height="3"/>
<rect x="64.5" y="94" fill="#2F2F2F" width="14" height="3"/>
<rect x="64.5" y="98" fill="#2F2F2F" width="14" height="3"/>
<rect x="64.5" y="103" fill="#2F2F2F" width="14" height="3"/>
<rect x="64.5" y="107" fill="#2F2F2F" width="14" height="3"/>
<rect x="64.5" y="112" fill="#2F2F2F" width="14" height="2"/>
<rect x="64.5" y="116" fill="#2F2F2F" width="14" height="3"/>
<rect x="64.5" y="120" fill="#2F2F2F" width="14" height="3"/>
<rect x="64.5" y="125" fill="#2F2F2F" width="14" height="3"/>
<rect x="64.5" y="129" fill="#2F2F2F" width="14" height="3"/>
<rect x="64.5" y="134" fill="#2F2F2F" width="14" height="3"/>
<rect x="64.5" y="138" fill="#2F2F2F" width="14" height="3"/>
<rect x="64.5" y="143" fill="#2F2F2F" width="14" height="2"/>
<rect x="64.5" y="147" fill="#2F2F2F" width="14" height="3"/>
<rect x="64.5" y="151" fill="#2F2F2F" width="14" height="3"/>
<rect x="64.5" y="156" fill="#2F2F2F" width="14" height="3"/>
<rect x="64.5" y="160" fill="#2F2F2F" width="14" height="3"/>
<rect x="64.5" y="165" fill="#2F2F2F" width="14" height="2"/>
<rect x="64.5" y="169" fill="#2F2F2F" width="14" height="3"/>
<rect x="64.5" y="174" fill="#2F2F2F" width="14" height="3"/>
<rect x="64.5" y="178" fill="#2F2F2F" width="14" height="3"/>
<rect x="64.5" y="182" fill="#2F2F2F" width="14" height="3"/>
<rect x="64.5" y="187" fill="#2F2F2F" width="14" height="3"/>
<rect x="64.5" y="191" fill="#2F2F2F" width="14" height="3"/>
<polyline fill="none" stroke="#757575" stroke-miterlimit="10" points="78.5,77.5 82.06,77.5 83.075,75.17 "/>
<line fill="none" stroke="#757575" stroke-miterlimit="10" x1="78.5" y1="86.5" x2="82.5" y2="86.5"/>
<line fill="none" stroke="#757575" stroke-miterlimit="10" x1="78.5" y1="99.5" x2="82.5" y2="99.5"/>
<line fill="none" stroke="#757575" stroke-miterlimit="10" x1="78.5" y1="113.5" x2="82.5" y2="113.5"/>
<line fill="none" stroke="#757575" stroke-miterlimit="10" x1="78.5" y1="126.5" x2="82.5" y2="126.5"/>
<line fill="none" stroke="#757575" stroke-miterlimit="10" x1="78.5" y1="139.5" x2="83.5" y2="139.5"/>
<rect x="37" y="208.5" fill="#2F2F2F" stroke="#2F2F2F" stroke-miterlimit="10" width="20" height="17"/>
<rect x="37" y="238.5" fill="#2F2F2F" stroke="#2F2F2F" stroke-miterlimit="10" width="20" height="17"/>
<rect x="88" y="233.5" fill="#2F2F2F" stroke="#2F2F2F" stroke-miterlimit="10" width="17" height="13"/>
<rect x="89" y="208.5" fill="#2F2F2F" stroke="#2F2F2F" stroke-miterlimit="10" width="17" height="13"/>
<line fill="none" stroke="#757575" stroke-width="11" stroke-linecap="round" stroke-miterlimit="10" x1="38.5" y1="257.5" x2="57.5" y2="257.5"/>
<polyline fill="none" stroke="#757575" stroke-width="5" stroke-linecap="round" stroke-linejoin="round" stroke-miterlimit="10" points="
	54.9,258.949 60.799,264.5 110,264.5 110,207.5 86.5,207.5 "/>
<line fill="none" stroke="#757575" stroke-width="5" stroke-linecap="round" stroke-linejoin="round" stroke-miterlimit="10" x1="84" y1="198" x2="84" y2="212"/>
<line fill="none" stroke="#757575" stroke-width="5" stroke-linecap="round" stroke-linejoin="round" stroke-miterlimit="10" x1="84" y1="224" x2="84" y2="238"/>
<line fill="none" stroke="#757575" stroke-width="5" stroke-linecap="round" stroke-linejoin="round" stroke-miterlimit="10" x1="77.5" y1="231.5" x2="110.5" y2="231.5"/>
<line fill="none" stroke="#757575" stroke-width="5" stroke-linecap="round" stroke-linejoin="round" stroke-miterlimit="10" x1="83" y1="252" x2="83" y2="276"/>
<line fill="none" stroke="#757575" stroke-width="5" stroke-linecap="round" stroke-linejoin="round" stroke-miterlimit="10" x1="76.5" y1="271.5" x2="89.5" y2="271.5"/>
<line fill="none" stroke="#757575" stroke-width="5" stroke-linecap="round" stroke-linejoin="round" stroke-miterlimit="10" x1="34.5" y1="204.5" x2="62.5" y2="204.5"/>
<line fill="none" stroke="#757575" stroke-width="5" stroke-linecap="round" stroke-linejoin="round" stroke-miterlimit="10" x1="55" y1="197" x2="55" y2="212"/>
<line fill="none" stroke="#757575" stroke-width="5" stroke-linecap="round" stroke-linejoin="round" stroke-miterlimit="10" x1="40" y1="197" x2="40" y2="212"/>
<line fill="none" stroke="#757575" stroke-miterlimit="10" x1="168.5" y1="77.5" x2="163.5" y2="77.5"/>
<polyline fill="none" stroke="#757575" stroke-miterlimit="10" points="179.5,82.5 182.942,82.5 187,77.564 187,72.283 
	192.165,67.5 195.5,67.5 "/>
<polyline fill="none" stroke="#757575" stroke-miterlimit="10" points="181.5,90.5 183.875,90.5 194.922,80.5 201.5,80.5 "/>
<polyline fill="none" stroke="#757575" stroke-miterlimit="10" points="181.5,95.5 186.204,95.5 193.718,87.5 200.5,87.5 "/>
<line fill="none" stroke="#757575" stroke-miterlimit="10" x1="168.5" y1="99.5" x2="164.5" y2="99.5"/>
<line fill="none" stroke="#757575" stroke-miterlimit="10" x1="168.5" y1="86.5" x2="164.5" y2="86.5"/>
<polyline fill="none" stroke="#757575" stroke-miterlimit="10" points="181.5,104.5 183.642,104.5 192.47,95.5 199.5,95.5 "/>
<polyline fill="none" stroke="#757575" stroke-miterlimit="10" points="180.5,108.5 186.204,108.5 192.437,102.5 199.5,102.5 "/>
<line fill="none" stroke="#757575" stroke-miterlimit="10" x1="168.5" y1="113.5" x2="164.5" y2="113.5"/>
<polyline fill="none" stroke="#757575" stroke-miterlimit="10" points="181.5,117.5 187.369,117.5 190.573,114.5 198.5,114.5 "/>
<polyline fill="none" stroke="#757575" stroke-miterlimit="10" points="181.5,121.5 188.534,121.5 190.107,120.5 198.5,120.5 "/>
<line fill="none" stroke="#757575" stroke-miterlimit="10" x1="168.5" y1="139.5" x2="164.5" y2="139.5"/>
<polyline fill="none" stroke="#757575" stroke-miterlimit="10" points="181.5,144.5 186.438,144.5 195,135.5 202.5,135.5 "/>
<polyline fill="none" stroke="#757575" stroke-miterlimit="10" points="180.5,130.5 185.972,130.5 189.117,127.5 200.5,127.5 "/>
<polyline fill="none" stroke="#757575" stroke-miterlimit="10" points="181.5,157.5 186.438,157.5 196.087,147.5 206.241,147.5 
	214.474,156.5 229.307,156.5 249.15,175.5 261.5,175.5 "/>
<polyline fill="none" stroke="#757575" stroke-miterlimit="10" points="181.5,161.5 190.165,161.5 193.854,158.5 227.443,158.5 
	248.373,179.5 265.42,179.5 269.522,175.113 "/>
<polyline fill="none" stroke="#757575" stroke-miterlimit="10" points="270.035,165.817 265.534,170.5 250.509,170.5 228.104,147.5 
	221.5,147.5 "/>
<polyline fill="none" stroke="#757575" stroke-miterlimit="10" points="260.668,165.663 243.287,148.5 236.5,148.5 "/>
<polyline fill="none" stroke="#757575" stroke-miterlimit="10" points="260.5,156.5 255.867,156.5 242.121,142.5 231.404,142.5 
	223.948,135.5 220.5,135.5 "/>
<polyline fill="none" stroke="#757575" stroke-miterlimit="10" points="269.631,156.663 265.502,152.5 256.8,152.5 233.326,129.5 
	223.5,129.5 "/>
<polyline fill="none" stroke="#757575" stroke-miterlimit="10" points="260.5,147.5 256.8,147.5 230.725,121.5 221.5,121.5 "/>
<polyline fill="none" stroke="#757575" stroke-miterlimit="10" points="269.646,147.68 265.02,142.5 256.8,142.5 228.123,114.5 
	221.5,114.5 "/>
<polyline fill="none" stroke="#757575" stroke-miterlimit="10" points="260.5,138.5 257.266,138.5 233,114.26 233,110.027 
	224.608,101.5 221.5,101.5 "/>
<polyline fill="none" stroke="#757575" stroke-miterlimit="10" points="269.572,138.941 265.005,134.5 257.499,134.5 236,112.998 
	236,105.135 225.386,94.5 221.5,94.5 "/>
<polyline fill="none" stroke="#757575" stroke-miterlimit="10" points="261.5,129.5 257.499,129.5 239,111.25 239,99.775 
	226.698,87.5 221.5,87.5 "/>
<polyline fill="none" stroke="#757575" stroke-miterlimit="10" points="269.496,129.747 265.118,125.5 257.499,125.5 241,108.935 
	241,95.582 225.883,80.5 221.5,80.5 "/>
<polyline fill="none" stroke="#757575" stroke-miterlimit="10" points="261.5,120.5 257.266,120.5 244,107.018 244,93.951 
	218.753,68.5 211.5,68.5 "/>
<polyline fill="none" stroke="#757575" stroke-miterlimit="10" points="269.428,120.684 264.979,116.5 258.663,116.5 255,111.969 
	255,93.252 249.279,87.871 "/>
<polyline fill="none" stroke="#757575" stroke-miterlimit="10" points="180.5,166.5 191.563,166.5 194.903,163.5 200.5,163.5 "/>
<polyline fill="none" stroke="#757575" stroke-miterlimit="10" points="221.5,163.5 225.347,163.5 245.054,183.5 260.5,183.5 "/>
<polyline fill="none" stroke="#757575" stroke-miterlimit="10" points="269.611,183.713 265.367,187.5 241.889,187.5 225.339,171.5 
	223.5,171.5 "/>
<polyline fill="none" stroke="#757575" stroke-miterlimit="10" points="260.5,192.5 240.258,192.5 225.794,178.5 223.5,178.5 "/>
<polyline fill="none" stroke="#757575" stroke-miterlimit="10" points="269.291,193.023 264.959,197.5 237.695,197.5 225.708,185.5 
	221.5,185.5 "/>
<line fill="none" stroke="#757575" stroke-miterlimit="10" x1="179.5" y1="170.5" x2="199.5" y2="170.5"/>
<polyline fill="none" stroke="#757575" stroke-miterlimit="10" points="180.5,175.5 192.495,175.5 196.107,178.5 202.5,178.5 "/>
<polyline fill="none" stroke="#757575" stroke-miterlimit="10" points="179.5,179.5 189.933,179.5 196.398,185.5 199.5,185.5 "/>
<polyline fill="none" stroke="#757575" stroke-miterlimit="10" points="180.5,183.5 183.875,183.5 196.884,196.5 199.5,196.5 "/>
<polyline fill="none" stroke="#757575" stroke-miterlimit="10" points="180.5,188.5 184.107,188.5 193,197.223 193,203.921 
	194.923,205.5 198.5,205.5 "/>
<polyline fill="none" stroke="#757575" stroke-miterlimit="10" points="181.227,192.575 189,200.775 189,207.183 194.107,211.5 
	198.5,211.5 "/>
<polyline fill="none" stroke="#757575" stroke-miterlimit="10" points="223.5,197.5 227.676,197.5 232.169,201.5 260.5,201.5 "/>
<polyline fill="none" stroke="#757575" stroke-miterlimit="10" points="269.977,202.467 265.668,206.5 229.773,206.5 227.531,204.5 
	221.5,204.5 "/>
<line fill="none" stroke="#757575" stroke-miterlimit="10" x1="260.5" y1="211.5" x2="223.5" y2="211.5"/>
<polyline fill="none" stroke="#757575" stroke-miterlimit="10" points="269.186,211.404 264.945,215.5 237.695,215.5 234.259,219.5 
	221.5,219.5 "/>
<rect x="192.5" y="64" fill="#2F2F2F" width="7" height="10"/>
<rect x="206.5" y="65" fill="#2F2F2F" width="8" height="9"/>
<rect x="195.5" y="79" fill="#2F2F2F" width="11" height="4"/>
<rect x="195.5" y="86" fill="#2F2F2F" width="11" height="4"/>
<rect x="195.5" y="93" fill="#2F2F2F" width="11" height="4"/>
<rect x="195.5" y="101" fill="#2F2F2F" width="11" height="4"/>
<rect x="213.5" y="79" fill="#2F2F2F" width="11" height="4"/>
<rect x="243.5" y="65" fill="#2F2F2F" width="11" height="3"/>
<rect x="243.5" y="57" fill="#2F2F2F" width="11" height="5"/>
<rect x="243.5" y="50" fill="#2F2F2F" width="11" height="4"/>
<rect x="243.5" y="42" fill="#2F2F2F" width="11" height="4"/>
<rect x="261.5" y="64" fill="#2F2F2F" width="11" height="4"/>
<rect x="261.5" y="57" fill="#2F2F2F" width="11" height="4"/>
<rect x="261.5" y="50" fill="#2F2F2F" width="11" height="4"/>
<rect x="261.5" y="42" fill="#2F2F2F" width="11" height="4"/>
<rect x="213.5" y="86" fill="#2F2F2F" width="11" height="4"/>
<rect x="213.5" y="93" fill="#2F2F2F" width="11" height="4"/>
<rect x="213.5" y="101" fill="#2F2F2F" width="11" height="4"/>
<rect x="196.5" y="113" fill="#2F2F2F" width="10" height="4"/>
<rect x="196.5" y="120" fill="#2F2F2F" width="10" height="4"/>
<rect x="196.5" y="127" fill="#2F2F2F" width="10" height="4"/>
<rect x="196.5" y="135" fill="#2F2F2F" width="10" height="4"/>
<rect x="214.5" y="113" fill="#2F2F2F" width="10" height="4"/>
<rect x="214.5" y="120" fill="#2F2F2F" width="10" height="4"/>
<rect x="214.5" y="127" fill="#2F2F2F" width="10" height="4"/>
<rect x="214.5" y="135" fill="#2F2F2F" width="10" height="4"/>
<rect x="196.5" y="162" fill="#2F2F2F" width="10" height="4"/>
<rect x="196.5" y="170" fill="#2F2F2F" width="10" height="4"/>
<rect x="196.5" y="177" fill="#2F2F2F" width="10" height="4"/>
<rect x="196.5" y="184" fill="#2F2F2F" width="10" height="4"/>
<rect x="214.5" y="162" fill="#2F2F2F" width="10" height="4"/>
<rect x="214.5" y="170" fill="#2F2F2F" width="10" height="4"/>
<rect x="214.5" y="177" fill="#2F2F2F" width="10" height="4"/>
<rect x="214.5" y="184" fill="#2F2F2F" width="10" height="4"/>
<rect x="196.5" y="196" fill="#2F2F2F" width="10" height="3"/>
<rect x="196.5" y="203" fill="#2F2F2F" width="10" height="4"/>
<rect x="196.5" y="210" fill="#2F2F2F" width="10" height="4"/>
<rect x="196.5" y="217" fill="#2F2F2F" width="10" height="4"/>
<rect x="214.5" y="196" fill="#2F2F2F" width="10" height="3"/>
<rect x="214.5" y="203" fill="#2F2F2F" width="10" height="4"/>
<rect x="214.5" y="210" fill="#2F2F2F" width="10" height="4"/>
<rect x="214.5" y="217" fill="#2F2F2F" width="10" height="4"/>
<rect x="167.5" y="76" fill="#2F2F2F" width="15" height="3"/>
<rect x="167.5" y="81" fill="#2F2F2F" width="15" height="2"/>
<rect x="167.5" y="85" fill="#2F2F2F" width="15" height="3"/>
<rect x="167.5" y="89" fill="#2F2F2F" width="15" height="3"/>
<rect x="167.5" y="94" fill="#2F2F2F" width="15" height="3"/>
<rect x="167.5" y="98" fill="#2F2F2F" width="15" height="3"/>
<rect x="167.5" y="103" fill="#2F2F2F" width="15" height="3"/>
<rect x="167.5" y="107" fill="#2F2F2F" width="15" height="3"/>
<rect x="167.5" y="112" fill="#2F2F2F" width="15" height="2"/>
<rect x="167.5" y="116" fill="#2F2F2F" width="15" height="3"/>
<rect x="167.5" y="120" fill="#2F2F2F" width="15" height="3"/>
<rect x="167.5" y="125" fill="#2F2F2F" width="15" height="3"/>
<rect x="167.5" y="129" fill="#2F2F2F" width="15" height="3"/>
<rect x="167.5" y="134" fill="#2F2F2F" width="15" height="3"/>
<rect x="167.5" y="138" fill="#2F2F2F" width="15" height="3"/>
<rect x="167.5" y="143" fill="#2F2F2F" width="15" height="2"/>
<rect x="167.5" y="147" fill="#2F2F2F" width="15" height="3"/>
<rect x="167.5" y="151" fill="#2F2F2F" width="15" height="3"/>
<rect x="167.5" y="156" fill="#2F2F2F" width="15" height="3"/>
<rect x="167.5" y="160" fill="#2F2F2F" width="15" height="3"/>
<rect x="167.5" y="165" fill="#2F2F2F" width="15" height="2"/>
<rect x="167.5" y="169" fill="#2F2F2F" width="15" height="3"/>
<rect x="167.5" y="174" fill="#2F2F2F" width="15" height="3"/>
<rect x="167.5" y="178" fill="#2F2F2F" width="15" height="3"/>
<rect x="167.5" y="182" fill="#2F2F2F" width="15" height="3"/>
<rect x="167.5" y="187" fill="#2F2F2F" width="15" height="3"/>
<rect x="167.5" y="191" fill="#2F2F2F" width="15" height="3"/>
<circle fill="#2F2F2F" cx="269.803" cy="211.26" r="1.747"/>
<circle fill="#2F2F2F" cx="260.483" cy="211.26" r="1.748"/>
<circle fill="#2F2F2F" cx="269.803" cy="202.406" r="1.747"/>
<circle fill="#2F2F2F" cx="260.483" cy="202.406" r="1.748"/>
<circle fill="#2F2F2F" cx="269.803" cy="193.553" r="1.747"/>
<circle fill="#2F2F2F" cx="260.483" cy="193.553" r="1.748"/>
<circle fill="#2F2F2F" cx="269.803" cy="184.699" r="1.747"/>
<circle fill="#2F2F2F" cx="260.483" cy="184.699" r="1.748"/>
<circle fill="#2F2F2F" cx="269.803" cy="175.846" r="1.747"/>
<circle fill="#2F2F2F" cx="260.483" cy="175.846" r="1.748"/>
<circle fill="#2F2F2F" cx="269.803" cy="166.992" r="1.747"/>
<circle fill="#2F2F2F" cx="260.483" cy="166.992" r="1.748"/>
<circle fill="#2F2F2F" cx="269.803" cy="156.741" r="1.747"/>
<circle fill="#2F2F2F" cx="260.483" cy="156.741" r="1.748"/>
<circle fill="#2F2F2F" cx="269.337" cy="147.888" r="1.747"/>
<circle fill="#2F2F2F" cx="260.017" cy="147.888" r="1.748"/>
<circle fill="#2F2F2F" cx="269.337" cy="138.801" r="1.747"/>
<circle fill="#2F2F2F" cx="260.017" cy="138.801" r="1.748"/>
<circle fill="#2F2F2F" cx="269.337" cy="129.947" r="1.747"/>
<circle fill="#2F2F2F" cx="260.017" cy="129.947" r="1.748"/>
<circle fill="#2F2F2F" cx="269.337" cy="120.861" r="1.747"/>
<circle fill="#2F2F2F" cx="260.017" cy="120.861" r="1.748"/>
<polyline fill="none" stroke="#757575" stroke-width="5" stroke-linecap="round" stroke-linejoin="round" stroke-miterlimit="10" points="
	210,277 210,243.5 156,243.5 156,51.5 178,51.5 178,6 "/>
<line fill="none" stroke="#757575" stroke-width="5" stroke-linecap="round" stroke-linejoin="round" stroke-miterlimit="10" x1="262" y1="12" x2="262" y2="121"/>
<line fill="none" stroke="#757575" stroke-width="5" stroke-linecap="round" stroke-linejoin="round" stroke-miterlimit="10" x1="232.5" y1="137.5" x2="265.5" y2="137.5"/>
<line fill="none" stroke="#757575" stroke-width="5" stroke-linecap="round" stroke-linejoin="round" stroke-miterlimit="10" x1="152.5" y1="218.5" x2="169.5" y2="218.5"/>
<line fill="none" stroke="#757575" stroke-width="5" stroke-linecap="round" stroke-linejoin="round" stroke-miterlimit="10" x1="163" y1="211" x2="163" y2="225"/>
<line fill="none" stroke="#757575" stroke-width="5" stroke-linecap="round" stroke-linejoin="round" stroke-miterlimit="10" x1="155.5" y1="209.5" x2="110.5" y2="209.5"/>
<line fill="none" stroke="#757575" stroke-width="5" stroke-linecap="round" stroke-linejoin="round" stroke-miterlimit="10" x1="143" y1="203" x2="143" y2="217"/>
<line fill="none" stroke="#757575" stroke-width="5" stroke-linecap="round" stroke-linejoin="round" stroke-miterlimit="10" x1="144" y1="160" x2="144" y2="175"/>
<line fill="none" stroke="#757575" stroke-width="5" stroke-linecap="round" stroke-linejoin="round" stroke-miterlimit="10" x1="166" y1="160" x2="166" y2="175"/>
<line fill="none" stroke="#757575" stroke-width="5" stroke-linecap="round" stroke-linejoin="round" stroke-miterlimit="10" x1="136.5" y1="167.5" x2="166.5" y2="167.5"/>
<line fill="none" stroke="#757575" stroke-width="5" stroke-linecap="round" stroke-linejoin="round" stroke-miterlimit="10" x1="144" y1="144" x2="144" y2="154"/>
<line fill="none" stroke="#757575" stroke-width="5" stroke-linecap="round" stroke-linejoin="round" stroke-miterlimit="10" x1="166" y1="144" x2="166" y2="154"/>
<line fill="none" stroke="#757575" stroke-width="5" stroke-linecap="round" stroke-linejoin="round" stroke-miterlimit="10" x1="136.5" y1="149.5" x2="166.5" y2="149.5"/>
<line fill="none" stroke="#757575" stroke-width="5" stroke-linecap="round" stroke-linejoin="round" stroke-miterlimit="10" x1="168" y1="120" x2="168" y2="135"/>
<line fill="none" stroke="#757575" stroke-width="5" stroke-linecap="round" stroke-linejoin="round" stroke-miterlimit="10" x1="155.5" y1="127.5" x2="173.5" y2="127.5"/>
<line fill="none" stroke="#757575" stroke-width="5" stroke-linecap="round" stroke-linejoin="round" stroke-miterlimit="10" x1="168" y1="92" x2="168" y2="107"/>
<line fill="none" stroke="#757575" stroke-width="5" stroke-linecap="round" stroke-linejoin="round" stroke-miterlimit="10" x1="97.5" y1="99.5" x2="173.5" y2="99.5"/>
<line fill="none" stroke="#757575" stroke-width="5" stroke-linecap="round" stroke-linejoin="round" stroke-miterlimit="10" x1="18.5" y1="113.5" x2="96.5" y2="113.5"/>
<line fill="none" stroke="#757575" stroke-width="5" stroke-linecap="round" stroke-linejoin="round" stroke-miterlimit="10" x1="86" y1="68" x2="86" y2="91"/>
<line fill="none" stroke="#757575" stroke-width="5" stroke-linecap="round" stroke-linejoin="round" stroke-miterlimit="10" x1="87" y1="134" x2="87" y2="146"/>
<line fill="none" stroke="#757575" stroke-width="5" stroke-linecap="round" stroke-linejoin="round" stroke-miterlimit="10" x1="86" y1="107" x2="86" y2="120"/>
<polyline fill="none" stroke="#757575" stroke-width="5" stroke-linecap="round" stroke-linejoin="round" stroke-miterlimit="10" points="
	83.5,139.5 97,139.5 97,73.5 86.5,73.5 "/>
<line fill="none" stroke="#757575" stroke-width="5" stroke-linecap="round" stroke-linejoin="round" stroke-miterlimit="10" x1="144" y1="92" x2="144" y2="107"/>
<circle fill="#578D35" cx="40.005" cy="204.387" r="2.446"/>
<circle fill="#578D35" cx="54.916" cy="204.387" r="2.446"/>
<circle fill="#578D35" cx="19.037" cy="264.322" r="7.165"/>
<circle fill="#578D35" cx="83.632" cy="139.616" r="2.854"/>
<circle fill="#578D35" cx="83.632" cy="127.035" r="2.854"/>
<circle fill="#578D35" cx="82.467" cy="113.056" r="2.854"/>
<circle fill="#578D35" cx="82.7" cy="99.775" r="2.854"/>
<circle fill="#578D35" cx="82.7" cy="86.495" r="2.854"/>
<circle fill="#578D35" cx="83.399" cy="74.146" r="2.854"/>
<circle fill="#578D35" cx="82.875" cy="271.953" r="2.446"/>
<circle fill="#578D35" cx="82.875" cy="259.604" r="2.446"/>
<circle fill="#578D35" cx="82.875" cy="244.461" r="2.446"/>
<circle fill="#578D35" cx="84.273" cy="231.181" r="2.447"/>
<circle fill="#578D35" cx="142.985" cy="209.513" r="2.446"/>
<circle fill="#578D35" cx="134.132" cy="189.709" r="2.446"/>
<circle fill="#578D35" cx="163.022" cy="218.366" r="2.446"/>
<circle fill="#578D35" cx="189.117" cy="230.947" r="2.446"/>
<circle fill="#578D35" cx="144.15" cy="168.041" r="2.446"/>
<circle fill="#578D35" cx="162.09" cy="167.575" r="2.447"/>
<circle fill="#578D35" cx="165.353" cy="149.169" r="2.446"/>
<circle fill="#578D35" cx="140.656" cy="149.169" r="2.447"/>
<circle fill="#578D35" cx="163.022" cy="138.685" r="2.446"/>
<circle fill="#578D35" cx="221.27" cy="148.237" r="2.446"/>
<circle fill="#578D35" cx="236.181" cy="148.47" r="2.446"/>
<circle fill="#578D35" cx="164.188" cy="113.056" r="2.446"/>
<circle fill="#578D35" cx="168.381" cy="100.008" r="2.446"/>
<circle fill="#578D35" cx="251.267" cy="88.592" r="3.902"/>
<circle fill="#578D35" cx="144.15" cy="99.775" r="2.446"/>
<circle fill="#578D35" cx="163.022" cy="86.495" r="2.446"/>
<circle fill="#578D35" cx="163.954" cy="77.408" r="2.446"/>
<circle fill="#578D35" cx="140.656" cy="122.375" r="2.447"/>
<circle fill="#578D35" cx="83.807" cy="218.133" r="2.446"/>
<circle fill="#578D35" cx="84.972" cy="206.717" r="2.446"/>
<line fill="none" stroke="#757575" stroke-width="5" stroke-linecap="round" stroke-linejoin="round" stroke-miterlimit="10" x1="136.5" y1="276.5" x2="243.5" y2="276.5"/>
</svg>
