<?xml version="1.0" encoding="utf-8"?>
<!-- Generator: Adobe Illustrator 16.0.0, SVG Export Plug-In . SVG Version: 6.00 Build 0)  -->
<!DOCTYPE svg PUBLIC "-//W3C//DTD SVG 1.1//EN" "http://www.w3.org/Graphics/SVG/1.1/DTD/svg11.dtd" [
	<!ENTITY ns_extend "http://ns.adobe.com/Extensibility/1.0/">
	<!ENTITY ns_ai "http://ns.adobe.com/AdobeIllustrator/10.0/">
	<!ENTITY ns_graphs "http://ns.adobe.com/Graphs/1.0/">
	<!ENTITY ns_vars "http://ns.adobe.com/Variables/1.0/">
	<!ENTITY ns_imrep "http://ns.adobe.com/ImageReplacement/1.0/">
	<!ENTITY ns_sfw "http://ns.adobe.com/SaveForWeb/1.0/">
	<!ENTITY ns_custom "http://ns.adobe.com/GenericCustomNamespace/1.0/">
	<!ENTITY ns_adobe_xpath "http://ns.adobe.com/XPath/1.0/">
]>
<svg version="1.1" id="Ebene_1" xmlns:x="&ns_extend;" xmlns:i="&ns_ai;" xmlns:graph="&ns_graphs;"
	 xmlns="http://www.w3.org/2000/svg" xmlns:xlink="http://www.w3.org/1999/xlink" x="0px" y="0px" width="283.46px"
	 height="283.46px" viewBox="0 0 283.46 283.46" enable-background="new 0 0 283.46 283.46" xml:space="preserve">
<metadata>
	<sfw  xmlns="&ns_sfw;">
		<slices></slices>
		<sliceSourceBounds  width="260.367" height="261.852" y="-272.396" x="10.816" bottomLeftOrigin="true"></sliceSourceBounds>
	</sfw>
</metadata>
<line fill="none" stroke="#2E2F2F" stroke-width="5.3212" stroke-miterlimit="10" x1="10.816" y1="154.369" x2="271.184" y2="154.369"/>
<g>
	<path fill="#2F2F2F" d="M170.016,66.627l2.361-1.421l1.329,2.209c0.935,1.552,2.337,2.942,3.771,2.108
		c0.874-0.526,1.612-1.923,0.139-4.372c-0.816-1.355-2.402-2.903-3.802-2.061l-1.737-2.886c3.302-1.987,6.479,0.569,8.176,3.39
		c1.737,2.887,2.206,6.834-1.038,8.816c-1.203,0.724-3.076,0.779-4.295-0.305c0.401,1.754-0.424,3.651-1.714,4.427
		c-3.739,2.25-6.973-0.599-8.749-3.551c-1.75-2.908-2.526-6.969,0.938-9.083l1.75,2.908c-1.574,0.947-0.845,3.397-0.095,4.644
		c0.882,1.465,2.665,3.042,4.306,2.056c0.918-0.553,1.753-1.74,0.095-4.495L170.016,66.627z"/>
	<path fill="#2F2F2F" d="M169.072,85.007l-0.907-1.509l2.415-0.887c-0.26-0.678-0.116-1.33,0.562-1.738
		c2.012-1.21,3.793,1.947,1.804,3.145C172.683,84.175,172.762,84.157,169.072,85.007z"/>
	<path fill="#2F2F2F" d="M185.36,83.217l-2.296,1.382c1.458,0.046,3.026,1.366,3.75,2.568c1.855,3.083,2.513,7.096-1.292,9.386
		c-3.389,2.04-7.033-0.205-8.889-3.289c-1.882-3.127-2.159-7.398,1.274-9.464l5.707-3.435c3.411-2.053,6.902,0.135,8.797,3.284
		c2,3.324,2.465,7.065-0.75,9l-1.736-2.886c1.355-0.816,1.007-2.929,0.02-4.569c-1.018-1.741-3.01-2.924-4.672-1.924L185.36,83.217z
		 M183.799,93.688c1.684-1.013,1.659-3.083,0.501-5.008c-1.158-1.924-3.02-3.038-4.712-1.989c-1.671,1.035-1.506,3.14-0.374,5.021
		C180.306,93.527,182.115,94.702,183.799,93.688z"/>
	<path fill="#2F2F2F" d="M201.278,105.212l-4.975-8.266l-2.689,1.619l1.789,2.974c1.961,3.258,2.377,6.969-1.222,9.105
		c-3.477,2.092-6.889,0.184-8.744-2.899c-2.026-3.368-2.562-6.978,1.012-9.157l1.724,2.864c-1.684,1.013-0.963,3.201-0.095,4.644
		c0.843,1.399,2.564,2.776,4.38,1.684c1.74-1.018,1.204-3.047,0.256-4.622l-3.486-5.794c2.755-1.658,5.313-3.198,8.09-4.869
		l6.672,11.086L201.278,105.212z"/>
</g>
<path fill="#FF7D00" stroke="#FF7D00" stroke-width="1.365" stroke-miterlimit="10" d="M225.666,104.752h-49.984h-49.985
	c0,0-5.924,0.348,0,11.528c5.924,11.181,24.19,25.25,30.361,39.814s6.171,28.981,6.171,28.981c0,4.579,3.712,8.292,8.291,8.292
	h10.323c4.579,0,8.291-3.713,8.291-8.292c0,0,0-14.418,6.171-28.981s24.438-28.633,30.361-39.814
	C231.59,105.101,225.666,104.752,225.666,104.752z"/>
<g id="XMLID_1_">
	<g>
		
			<path fill="none" stroke="#2F2F2F" stroke-width="5.8611" stroke-linecap="round" stroke-linejoin="round" stroke-miterlimit="10" d="
			M153.74,66.349c0,11.343-7.72,20.539-17.24,20.539H47.856c-9.523,0-17.24-9.195-17.24-20.539c0-5.67,1.93-10.802,5.048-14.52
			c3.118-3.717,7.431-6.016,12.191-6.016H136.5C146.021,45.813,153.74,55.009,153.74,66.349z"/>
		
			<circle fill="none" stroke="#2F2F2F" stroke-width="5.8611" stroke-linecap="round" stroke-linejoin="round" stroke-miterlimit="10" cx="51.887" cy="66.349" r="7.556"/>
		
			<circle fill="none" stroke="#2F2F2F" stroke-width="5.8611" stroke-linecap="round" stroke-linejoin="round" stroke-miterlimit="10" cx="78.459" cy="66.349" r="7.556"/>
		
			<circle fill="none" stroke="#2F2F2F" stroke-width="5.8611" stroke-linecap="round" stroke-linejoin="round" stroke-miterlimit="10" cx="105.034" cy="66.349" r="7.556"/>
		
			<path fill="none" stroke="#2F2F2F" stroke-width="5.8611" stroke-linecap="round" stroke-linejoin="round" stroke-miterlimit="10" d="
			M139.165,66.349c0-4.173-3.38-7.556-7.556-7.556c-4.174,0-7.557,3.383-7.557,7.556s3.383,7.557,7.557,7.557
			C135.785,73.905,139.165,70.522,139.165,66.349z"/>
	</g>
</g>
<g>
	<path fill="#2F2F2F" d="M87.609,33.315l-5.223-0.942l-0.307,1.7l1.879,0.339c2.059,0.371,3.745,1.546,3.322,3.81
		c-0.396,2.197-2.423,2.916-4.372,2.564c-2.128-0.384-3.815-1.473-3.42-3.741l1.81,0.326c-0.192,1.064,0.974,1.56,1.887,1.724
		c0.884,0.16,2.078-0.053,2.285-1.2c0.211-1.089-0.824-1.604-1.819-1.783l-3.662-0.66c0.314-1.741,0.605-3.358,0.922-5.113
		l7.006,1.264L87.609,33.315z"/>
</g>
<g>
	<path fill="#2F2F2F" d="M120.222,23.318l1.419-0.401l-1.791-6.323l-1.473,0.417l-0.459-1.621l3.242-0.918l2.25,7.944l1.311-0.371
		l0.429,1.513l-4.499,1.274L120.222,23.318z"/>
</g>
<g>
	<path fill="#2F2F2F" d="M187.98,71.5c-5.483-2.093-2.396-10.143,3.075-8.054l1.325,0.506c5.47,2.088,2.407,10.148-3.075,8.055
		L187.98,71.5z M189.961,70.287c3.332,1.272,5.096-3.345,1.764-4.617l-1.325-0.506c-3.279-1.252-5.082,3.351-1.764,4.618
		L189.961,70.287z"/>
	<path fill="#2F2F2F" d="M198.563,63.427l-0.346,0.905l-1.203-0.745c-0.206,0.342-0.537,0.501-0.944,0.346
		c-1.207-0.461-0.443-2.304,0.751-1.848C196.978,62.146,196.943,62.117,198.563,63.427z"/>
	<path fill="#2F2F2F" d="M191.503,58.493c-1.936-0.754-2.074-2.911-1.428-4.604c0.701-1.836,2.21-3.545,4.388-2.713
		c2.334,0.891,2.109,2.819,1.373,4.748c-0.29,0.761-0.564,2.069,0.433,2.45l0.787,0.301l2.179-5.707l1.613,0.616l-2.84,7.438
		c-0.8-0.306-1.601-0.611-2.413-0.922c-2.112-0.806-2.011-2.962-1.319-4.772c0.266-0.695,0.633-2.013-0.43-2.418
		c-0.997-0.381-1.814,0.344-2.266,1.524c-0.346,0.905-0.242,2.012,0.579,2.341L191.503,58.493z"/>
	<path fill="#2F2F2F" d="M196.305,42.847l-1.893,4.958l1.613,0.616l0.681-1.784c0.746-1.955,2.213-3.394,4.359-2.559
		c2.086,0.796,2.417,2.921,1.71,4.771c-0.771,2.02-2.153,3.476-4.311,2.667l0.656-1.718c1.011,0.386,1.714-0.668,2.044-1.534
		c0.321-0.839,0.333-2.052-0.756-2.468c-1.031-0.409-1.729,0.512-2.09,1.457l-1.327,3.476c-1.652-0.631-3.188-1.217-4.854-1.853
		l2.54-6.651L196.305,42.847z"/>
	<path fill="#2F2F2F" d="M197.773,34.12l5.746,2.194l0.41-1.076l1.68,0.641l-0.411,1.075l1.745,0.667l-0.651,1.705l-1.745-0.666
		l-1.873,4.906l-1.818-0.514l-4.089-6.296L197.773,34.12z M202.868,38.019l-4.251-1.623l3.063,4.732L202.868,38.019z"/>
</g>
<g>
	<path fill="#2F2F2F" d="M159.273,97.409l1.668-8.849l-4.607,1.305l-0.481-1.702l6.944-1.967l0.362,0.919l-1.832,9.713
		L159.273,97.409z"/>
</g>
<g>
	<path fill="#2F2F2F" d="M40.135,34.333c-1.599-5.647,6.7-7.983,8.295-2.35l0.387,1.365c1.596,5.633-6.696,7.997-8.295,2.35
		L40.135,34.333z M42.292,35.197c0.972,3.432,5.728,2.084,4.755-1.347l-0.386-1.365c-0.957-3.378-5.724-2.071-4.756,1.347
		L42.292,35.197z"/>
	<path fill="#2F2F2F" d="M52.933,37.991L52,38.255l-0.122-1.411c-0.397,0.04-0.723-0.131-0.842-0.549
		c-0.352-1.243,1.582-1.732,1.93-0.503C53.013,35.955,53.015,35.91,52.933,37.991z"/>
	<path fill="#2F2F2F" d="M59.368,26.347l-5.106,1.446l0.47,1.662l1.837-0.521c2.013-0.57,4.043-0.255,4.658,1.965
		c0.608,2.147-0.898,3.684-2.803,4.223c-2.081,0.589-4.074,0.352-4.715-1.86l1.77-0.501c0.295,1.041,1.56,0.974,2.452,0.721
		c0.865-0.245,1.845-0.96,1.527-2.082c-0.289-1.071-1.444-1.08-2.417-0.804l-3.58,1.014c-0.482-1.702-0.93-3.283-1.416-4.999
		l6.85-1.94L59.368,26.347z"/>
	<path fill="#2F2F2F" d="M61.398,28.311c-1.6-5.647,6.699-7.983,8.295-2.35l0.387,1.365c1.596,5.633-6.696,7.997-8.295,2.35
		L61.398,28.311z M63.554,29.174c0.972,3.432,5.728,2.084,4.755-1.347l-0.386-1.365c-0.957-3.378-5.724-2.071-4.755,1.347
		L63.554,29.174z"/>
	<path fill="#2F2F2F" d="M72.264,25.817c-0.933-0.203-1.511-0.798-1.717-1.527c-0.54-1.905,0.941-3.375,2.995-3.957
		c2.04-0.578,4.157-0.112,4.692,1.78c0.184,0.648,0.041,1.535-0.711,2.127c1.083,0.117,1.809,0.977,2.029,1.702
		c0.665,2.191-1.113,3.643-3.225,4.226c-2.057,0.568-4.348,0.312-4.936-1.915C71.199,27.52,71.402,26.485,72.264,25.817z
		 M74.729,24.477c1.094-0.31,1.831-1.059,1.625-1.89c-0.199-0.805-1.189-1.108-2.392-0.768c-1.338,0.379-1.818,1.259-1.607,1.9
		C72.616,24.535,73.689,24.771,74.729,24.477z M73.264,27.752c0.193,0.733,1.172,1.201,2.618,0.791
		c1.446-0.409,2.038-1.307,1.814-2.046c-0.277-0.929-1.409-1.061-2.598-0.724C73.989,26.087,73.013,26.816,73.264,27.752z"/>
</g>
<g>
	<path fill="#2F2F2F" d="M107.721,35.545l-0.025-1.516l1.418-0.024c0.997-0.017,2.045-0.301,2.044-1.214
		c-0.01-0.562-0.472-1.298-2.044-1.271c-0.871,0.015-2.044,0.344-2.029,1.242l-1.853,0.031c-0.036-2.12,2.057-2.928,3.868-2.958
		c1.854-0.031,3.862,0.833,3.912,2.925c0.013,0.772-0.477,1.679-1.329,1.96c0.946,0.293,1.622,1.208,1.636,2.037
		c0.041,2.401-2.208,3.155-4.103,3.187c-1.868,0.032-4.015-0.718-4.067-2.951l1.868-0.031c0.017,1.011,1.385,1.338,2.185,1.325
		c0.94-0.016,2.184-0.43,2.166-1.483c-0.01-0.589-0.346-1.314-2.114-1.284L107.721,35.545z"/>
	<path fill="#2F2F2F" d="M116.212,41.062l-0.969,0.016l0.243-1.395c-0.395-0.063-0.666-0.312-0.673-0.747
		c-0.021-1.292,1.973-1.27,1.995,0.008C116.811,39.113,116.824,39.071,116.212,41.062z"/>
	<path fill="#2F2F2F" d="M119.85,32.813l0.025,1.474c0.424-0.681,1.485-1.064,2.257-1.078c1.979-0.033,4.071,0.76,4.113,3.203
		c0.037,2.176-2.037,3.292-4.016,3.326c-2.008,0.034-4.118-1.012-4.155-3.216l-0.062-3.665c-0.037-2.19,1.967-3.249,3.989-3.283
		c2.134-0.036,4.044,0.774,4.079,2.838l-1.853,0.031c-0.015-0.871-1.117-1.287-2.17-1.27c-1.109,0.005-2.222,0.628-2.204,1.694
		L119.85,32.813z M124.405,36.443c-0.018-1.081-1.011-1.64-2.246-1.619s-2.279,0.6-2.247,1.695c0.033,1.081,1.08,1.583,2.288,1.562
		C123.365,38.062,124.423,37.524,124.405,36.443z"/>
	<path fill="#2F2F2F" d="M134.709,31.297l-5.307,0.09l0.029,1.727l1.909-0.032c2.092-0.036,3.974,0.789,3.999,3.092
		c0.038,2.232-1.812,3.331-3.791,3.365c-2.162,0.036-4.028-0.705-4.082-3.007l1.839-0.031c0.018,1.081,1.259,1.341,2.185,1.325
		c0.898-0.016,2.029-0.456,2.009-1.621c-0.004-1.109-1.119-1.414-2.13-1.396l-3.721,0.063c-0.03-1.769-0.058-3.412-0.088-5.194
		l7.118-0.121L134.709,31.297z"/>
</g>
<g>
	<path fill="#2F2F2F" d="M140.931,24.819c2.884-5.446,10.877-1.199,8.001,4.235l-0.697,1.316c-2.876,5.434-10.883,1.212-8-4.235
		L140.931,24.819z M141.941,27.039c-1.752,3.31,2.834,5.737,4.586,2.428l0.697-1.316c1.725-3.258-2.842-5.725-4.587-2.428
		L141.941,27.039z"/>
	<path fill="#2F2F2F" d="M147.992,36.88l-0.899-0.476l0.931-1.159c-0.33-0.258-0.454-0.624-0.24-1.028
		c0.635-1.199,2.457-0.167,1.83,1.019C149.53,35.393,149.563,35.36,147.992,36.88z"/>
	<path fill="#2F2F2F" d="M155.519,31.139l-0.725,1.368c0.735-0.412,1.904-0.226,2.621,0.153c1.837,0.973,3.359,2.762,2.158,5.029
		c-1.068,2.02-3.541,1.995-5.378,1.023c-1.864-0.987-3.274-3.018-2.191-5.063l1.801-3.401c1.075-2.033,3.455-1.99,5.332-0.997
		c1.98,1.048,3.325,2.761,2.312,4.677l-1.72-0.911c0.428-0.808-0.375-1.75-1.353-2.267c-1.022-0.558-2.361-0.549-2.886,0.441
		L155.519,31.139z M157.866,36.786c0.531-1.003-0.098-2.02-1.244-2.627s-2.399-0.603-2.925,0.42c-0.519,1.01,0.19,2.003,1.312,2.596
		C156.09,37.748,157.336,37.79,157.866,36.786z"/>
	<path fill="#2F2F2F" d="M163.372,38.299l0.745-1.407l1.315,0.697c0.926,0.49,2.034,0.759,2.495-0.081
		c0.276-0.521,0.225-1.433-1.234-2.205c-0.809-0.428-2.055-0.721-2.496,0.113l-1.72-0.91c1.041-1.968,3.375-1.649,5.056-0.76
		c1.721,0.911,3.129,2.724,2.114,4.672c-0.379,0.717-1.29,1.302-2.215,1.129c0.721,0.749,0.878,1.933,0.471,2.702
		c-1.18,2.228-3.629,1.782-5.388,0.851c-1.733-0.917-3.328-2.695-2.244-4.774l1.733,0.917c-0.497,0.938,0.595,1.933,1.338,2.326
		c0.872,0.462,2.226,0.711,2.742-0.266c0.29-0.547,0.349-1.383-1.293-2.252L163.372,38.299z"/>
	<path fill="#2F2F2F" d="M178.474,41.789l-4.926-2.607l-0.849,1.603l1.772,0.938c1.941,1.028,3.254,2.74,2.109,4.87
		c-1.097,2.072-3.354,2.145-5.191,1.172c-2.007-1.062-3.347-2.689-2.229-4.833l1.707,0.903c-0.531,1.003,0.478,1.871,1.337,2.326
		c0.834,0.441,2.097,0.609,2.669-0.472c0.559-1.022-0.313-1.867-1.251-2.364l-3.453-1.828c0.869-1.642,1.677-3.166,2.553-4.821
		l6.605,3.497L178.474,41.789z"/>
</g>
<g>
	<path fill="#2F2F2F" d="M91.635,28.365l1.341-0.613l-2.731-5.977l-1.392,0.636l-0.7-1.532l3.065-1.4l3.431,7.509l1.239-0.566
		l0.654,1.431l-4.253,1.943L91.635,28.365z"/>
	<path fill="#2F2F2F" d="M99.246,28.129l-0.881,0.403l-0.335-1.375c-0.387,0.1-0.734-0.02-0.916-0.416
		c-0.537-1.175,1.3-1.953,1.831-0.791C99.015,26.104,99.01,26.06,99.246,28.129z"/>
	<path fill="#2F2F2F" d="M97.676,19.661c-0.851-1.896,0.564-3.53,2.211-4.283c1.788-0.817,4.062-0.976,5.031,1.144
		c1.039,2.273-0.475,3.49-2.352,4.348c-0.741,0.338-1.854,1.078-1.411,2.049l0.35,0.766l5.556-2.539l0.718,1.571l-7.241,3.309
		c-0.356-0.779-0.712-1.558-1.074-2.35c-0.939-2.056,0.645-3.521,2.407-4.326c0.677-0.31,1.863-0.991,1.391-2.025
		c-0.443-0.971-1.535-1.028-2.684-0.503c-0.881,0.403-1.584,1.264-1.229,2.075L97.676,19.661z"/>
	<path fill="#2F2F2F" d="M108.992,22.163l0.303-9l-4.355,1.99l-0.735-1.609l6.564-2.999l0.498,0.853l-0.334,9.879L108.992,22.163z"
		/>
</g>
<path fill="none" stroke="#2E2F2F" stroke-width="3.1135" stroke-miterlimit="10" d="M199.75,259.451
	c-0.632,2.354-3.053,3.75-5.406,3.117l-36.578-9.825c-2.354-0.633-3.749-3.053-3.117-5.407l9.826-36.577
	c0.632-2.354,3.053-3.75,5.406-3.117l36.577,9.825c2.354,0.633,3.749,3.053,3.117,5.407L199.75,259.451z"/>
<line fill="none" stroke="#2E2F2F" stroke-width="3.1135" stroke-miterlimit="10" x1="190.881" y1="202.46" x2="188.17" y2="212.555"/>
<line fill="none" stroke="#2E2F2F" stroke-width="3.1135" stroke-miterlimit="10" x1="198.779" y1="204.582" x2="196.068" y2="214.676"/>
<line fill="none" stroke="#2E2F2F" stroke-width="3.1135" stroke-miterlimit="10" x1="182.982" y1="200.339" x2="180.271" y2="210.433"/>
<line fill="none" stroke="#2E2F2F" stroke-width="3.1135" stroke-miterlimit="10" x1="175.084" y1="198.217" x2="172.372" y2="208.311"/>
<line fill="none" stroke="#2E2F2F" stroke-width="3.1135" stroke-miterlimit="10" x1="206.678" y1="206.703" x2="203.967" y2="216.798"/>
<line fill="none" stroke="#2E2F2F" stroke-width="3.1135" stroke-miterlimit="10" x1="176.055" y1="257.655" x2="173.343" y2="267.75"/>
<line fill="none" stroke="#2E2F2F" stroke-width="3.1135" stroke-miterlimit="10" x1="183.953" y1="259.777" x2="181.242" y2="269.872"/>
<line fill="none" stroke="#2E2F2F" stroke-width="3.1135" stroke-miterlimit="10" x1="168.155" y1="255.534" x2="165.444" y2="265.628"/>
<line fill="none" stroke="#2E2F2F" stroke-width="3.1135" stroke-miterlimit="10" x1="160.257" y1="253.412" x2="157.546" y2="263.507"/>
<line fill="none" stroke="#2E2F2F" stroke-width="3.1135" stroke-miterlimit="10" x1="191.852" y1="261.899" x2="189.141" y2="271.993"/>
<line fill="none" stroke="#2E2F2F" stroke-width="3.1135" stroke-miterlimit="10" x1="149.467" y1="226.336" x2="159.562" y2="229.048"/>
<line fill="none" stroke="#2E2F2F" stroke-width="3.1135" stroke-miterlimit="10" x1="151.589" y1="218.438" x2="161.683" y2="221.149"/>
<line fill="none" stroke="#2E2F2F" stroke-width="3.1135" stroke-miterlimit="10" x1="147.346" y1="234.234" x2="157.439" y2="236.946"/>
<line fill="none" stroke="#2E2F2F" stroke-width="3.1135" stroke-miterlimit="10" x1="145.224" y1="242.134" x2="155.318" y2="244.845"/>
<line fill="none" stroke="#2E2F2F" stroke-width="3.1135" stroke-miterlimit="10" x1="153.711" y1="210.539" x2="163.805" y2="213.25"/>
<line fill="none" stroke="#2E2F2F" stroke-width="3.1135" stroke-miterlimit="10" x1="204.663" y1="241.162" x2="214.757" y2="243.874"/>
<line fill="none" stroke="#2E2F2F" stroke-width="3.1135" stroke-miterlimit="10" x1="206.784" y1="233.264" x2="216.879" y2="235.976"/>
<line fill="none" stroke="#2E2F2F" stroke-width="3.1135" stroke-miterlimit="10" x1="202.541" y1="249.061" x2="212.635" y2="251.772"/>
<line fill="none" stroke="#2E2F2F" stroke-width="3.1135" stroke-miterlimit="10" x1="200.419" y1="256.96" x2="210.514" y2="259.671"/>
<line fill="none" stroke="#2E2F2F" stroke-width="3.1135" stroke-miterlimit="10" x1="208.906" y1="225.365" x2="219" y2="228.076"/>
<rect x="186.26" y="222.516" transform="matrix(0.9658 0.2595 -0.2595 0.9658 65.8942 -42.0734)" fill="#2F2F2F" width="12.142" height="12.142"/>
<rect x="170.463" y="218.273" transform="matrix(0.9658 0.2595 -0.2595 0.9658 64.2523 -38.12)" fill="#2F2F2F" width="12.142" height="12.142"/>
<rect x="181.818" y="239.054" transform="matrix(0.9658 0.2594 -0.2594 0.9658 70.0271 -40.352)" fill="#2F2F2F" width="12.143" height="12.143"/>
<rect x="166.02" y="234.811" transform="matrix(0.9658 0.2595 -0.2595 0.9658 68.391 -36.4009)" fill="#2F2F2F" width="12.142" height="12.142"/>
<path fill="none" stroke="#2E2F2F" stroke-width="3.9993" stroke-miterlimit="10" d="M103.977,245.551
	c-0.007,3.13-2.552,5.662-5.682,5.653l-48.649-0.125c-3.13-0.008-5.662-2.552-5.653-5.683l0.125-48.649
	c0.007-3.13,2.552-5.662,5.682-5.653l48.649,0.125c3.13,0.008,5.662,2.553,5.654,5.683L103.977,245.551z"/>
<line fill="none" stroke="#2E2F2F" stroke-width="3.9993" stroke-miterlimit="10" x1="74.158" y1="177.73" x2="74.124" y2="191.156"/>
<line fill="none" stroke="#2E2F2F" stroke-width="3.9993" stroke-miterlimit="10" x1="84.664" y1="177.758" x2="84.629" y2="191.184"/>
<line fill="none" stroke="#2E2F2F" stroke-width="3.9993" stroke-miterlimit="10" x1="63.652" y1="177.704" x2="63.618" y2="191.129"/>
<line fill="none" stroke="#2E2F2F" stroke-width="3.9993" stroke-miterlimit="10" x1="53.147" y1="177.677" x2="53.113" y2="191.103"/>
<line fill="none" stroke="#2E2F2F" stroke-width="3.9993" stroke-miterlimit="10" x1="95.169" y1="177.784" x2="95.134" y2="191.21"/>
<line fill="none" stroke="#2E2F2F" stroke-width="3.9993" stroke-miterlimit="10" x1="73.97" y1="251.142" x2="73.935" y2="264.567"/>
<line fill="none" stroke="#2E2F2F" stroke-width="3.9993" stroke-miterlimit="10" x1="84.475" y1="251.169" x2="84.441" y2="264.595"/>
<line fill="none" stroke="#2E2F2F" stroke-width="3.9993" stroke-miterlimit="10" x1="63.464" y1="251.115" x2="63.43" y2="264.541"/>
<line fill="none" stroke="#2E2F2F" stroke-width="3.9993" stroke-miterlimit="10" x1="52.959" y1="251.088" x2="52.924" y2="264.514"/>
<line fill="none" stroke="#2E2F2F" stroke-width="3.9993" stroke-miterlimit="10" x1="94.98" y1="251.196" x2="94.946" y2="264.621"/>
<line fill="none" stroke="#2E2F2F" stroke-width="3.9993" stroke-miterlimit="10" x1="30.628" y1="221.037" x2="44.054" y2="221.072"/>
<line fill="none" stroke="#2E2F2F" stroke-width="3.9993" stroke-miterlimit="10" x1="30.655" y1="210.532" x2="44.081" y2="210.567"/>
<line fill="none" stroke="#2E2F2F" stroke-width="3.9993" stroke-miterlimit="10" x1="30.601" y1="231.543" x2="44.027" y2="231.577"/>
<line fill="none" stroke="#2E2F2F" stroke-width="3.9993" stroke-miterlimit="10" x1="30.574" y1="242.049" x2="44" y2="242.083"/>
<line fill="none" stroke="#2E2F2F" stroke-width="3.9993" stroke-miterlimit="10" x1="30.682" y1="200.027" x2="44.107" y2="200.061"/>
<line fill="none" stroke="#2E2F2F" stroke-width="3.9993" stroke-miterlimit="10" x1="104.04" y1="221.226" x2="117.465" y2="221.261"/>
<line fill="none" stroke="#2E2F2F" stroke-width="3.9993" stroke-miterlimit="10" x1="104.066" y1="210.721" x2="117.492" y2="210.755"/>
<line fill="none" stroke="#2E2F2F" stroke-width="3.9993" stroke-miterlimit="10" x1="104.013" y1="231.731" x2="117.438" y2="231.766"/>
<line fill="none" stroke="#2E2F2F" stroke-width="3.9993" stroke-miterlimit="10" x1="103.986" y1="242.237" x2="117.411" y2="242.271"/>
<line fill="none" stroke="#2E2F2F" stroke-width="3.9993" stroke-miterlimit="10" x1="104.093" y1="200.215" x2="117.519" y2="200.25"/>
<rect x="55.744" y="201.859" transform="matrix(1 0.0026 -0.0026 1 0.5712 -0.1909)" fill="#2F2F2F" width="36.608" height="37.595"/>
</svg>
