<?xml version="1.0" encoding="utf-8"?>
<!-- Generator: Adobe Illustrator 16.0.0, SVG Export Plug-In . SVG Version: 6.00 Build 0)  -->
<!DOCTYPE svg PUBLIC "-//W3C//DTD SVG 1.1//EN" "http://www.w3.org/Graphics/SVG/1.1/DTD/svg11.dtd" [
	<!ENTITY ns_extend "http://ns.adobe.com/Extensibility/1.0/">
	<!ENTITY ns_ai "http://ns.adobe.com/AdobeIllustrator/10.0/">
	<!ENTITY ns_graphs "http://ns.adobe.com/Graphs/1.0/">
	<!ENTITY ns_vars "http://ns.adobe.com/Variables/1.0/">
	<!ENTITY ns_imrep "http://ns.adobe.com/ImageReplacement/1.0/">
	<!ENTITY ns_sfw "http://ns.adobe.com/SaveForWeb/1.0/">
	<!ENTITY ns_custom "http://ns.adobe.com/GenericCustomNamespace/1.0/">
	<!ENTITY ns_adobe_xpath "http://ns.adobe.com/XPath/1.0/">
]>
<svg version="1.1" id="Ebene_1" xmlns:x="&ns_extend;" xmlns:i="&ns_ai;" xmlns:graph="&ns_graphs;"
	 xmlns="http://www.w3.org/2000/svg" xmlns:xlink="http://www.w3.org/1999/xlink" x="0px" y="0px" width="283.46px"
	 height="283.46px" viewBox="0 0 283.46 283.46" enable-background="new 0 0 283.46 283.46" xml:space="preserve">
<metadata>
	<sfw  xmlns="&ns_sfw;">
		<slices></slices>
		<sliceSourceBounds  width="256.713" height="249.654" y="-266.587" x="13.487" bottomLeftOrigin="true"></sliceSourceBounds>
	</sfw>
</metadata>
<g>
	
		<line fill="none" stroke="#C42F2C" stroke-width="1.66" stroke-miterlimit="10" x1="13.705" y1="96.959" x2="269.982" y2="166.567"/>
	
		<line fill="none" stroke="#42A248" stroke-width="1.66" stroke-miterlimit="10" x1="217.005" y1="17.265" x2="108.422" y2="266.255"/>
	
		<line fill="none" stroke="#3489CB" stroke-width="1.66" stroke-miterlimit="10" x1="50.107" y1="32.363" x2="254.355" y2="217.73"/>
	<polygon fill="none" stroke="#2F2F2F" stroke-width="1.66" stroke-miterlimit="10" points="50.107,153.823 101.155,45.094 
		237.693,65.014 184.99,198.228 	"/>
	<polyline fill="none" stroke="#2F2F2F" stroke-width="1.66" stroke-miterlimit="10" points="50.107,153.823 66.606,167.625 
		197.019,214.41 184.99,198.228 	"/>
	<polyline fill="none" stroke="#2F2F2F" stroke-width="1.66" stroke-miterlimit="10" points="237.693,65.014 248.483,85.765 
		197.019,214.41 	"/>
	<polygon fill="none" stroke="#2F2F2F" stroke-width="1.66" stroke-miterlimit="10" points="68.373,163.783 61.729,176.232 
		73.076,190.347 69.199,202.515 79.713,207.492 84.42,194.769 73.076,182.323 79.441,168.209 	"/>
	<polyline fill="none" stroke="#2F2F2F" stroke-width="1.66" stroke-miterlimit="10" points="79.713,207.492 84.142,208 
		89.954,193.543 79.99,182.24 83.036,171.237 79.441,168.209 	"/>
	<polygon fill="none" stroke="#2F2F2F" stroke-width="1.66" stroke-miterlimit="10" points="97.839,175.606 110.493,180.383 
		104.166,195.116 114.432,206.317 110.285,220.015 97.839,215.658 102.403,201.756 92.026,190.347 	"/>
	
		<line fill="none" stroke="#2F2F2F" stroke-width="1.66" stroke-miterlimit="10" x1="73.076" y1="190.347" x2="84.42" y2="194.769"/>
	
		<line fill="none" stroke="#2F2F2F" stroke-width="1.66" stroke-miterlimit="10" x1="61.729" y1="176.232" x2="73.076" y2="182.323"/>
	<polyline fill="none" stroke="#2F2F2F" stroke-width="1.66" stroke-miterlimit="10" points="110.493,180.383 114.432,183.289 
		110.493,191.174 120.867,202.17 115.68,220.846 110.285,220.015 	"/>
	
		<line fill="none" stroke="#2F2F2F" stroke-width="1.66" stroke-miterlimit="10" x1="102.403" y1="201.756" x2="114.432" y2="206.317"/>
	
		<line fill="none" stroke="#2F2F2F" stroke-width="1.66" stroke-miterlimit="10" x1="92.026" y1="190.347" x2="104.166" y2="195.116"/>
	<polygon fill="none" stroke="#2F2F2F" stroke-width="1.66" stroke-miterlimit="10" points="131.24,187.781 125.223,202.792 
		135.805,215.658 130.518,229.353 143.902,234.126 148.463,220.846 138.503,208.396 144.938,192.731 	"/>
	<polygon fill="none" stroke="#2F2F2F" stroke-width="1.66" stroke-miterlimit="10" points="168.595,201.756 162.782,217.73 
		171.915,229.77 167.351,244.704 181.67,250.517 186.648,234.126 177.52,223.543 183.742,207.492 	"/>
	<polyline fill="none" stroke="#2F2F2F" stroke-width="1.66" stroke-miterlimit="10" points="144.938,192.731 148.463,195.738 
		144.938,204.037 154.692,214.41 148.463,235.165 143.902,234.126 	"/>
	
		<line fill="none" stroke="#2F2F2F" stroke-width="1.66" stroke-miterlimit="10" x1="135.805" y1="215.658" x2="148.463" y2="220.846"/>
	
		<line fill="none" stroke="#2F2F2F" stroke-width="1.66" stroke-miterlimit="10" x1="125.223" y1="202.792" x2="138.503" y2="208.396"/>
	
		<line fill="none" stroke="#2F2F2F" stroke-width="1.66" stroke-miterlimit="10" x1="162.782" y1="217.73" x2="177.52" y2="223.543"/>
	<polyline fill="none" stroke="#2F2F2F" stroke-width="2" stroke-miterlimit="10" points="183.907,208.237 187.969,210.219 
		183.779,219.164 192.057,230.809 185.817,250 181.67,250.517 	"/>
	
		<line fill="none" stroke="#2F2F2F" stroke-width="1.66" stroke-miterlimit="10" x1="171.915" y1="229.77" x2="186.648" y2="234.126"/>
	<polyline fill="none" stroke="#2F2F2F" stroke-width="1.66" stroke-miterlimit="10" points="122.47,48.202 125.018,44.054 
		139.543,46.129 137.186,50.35 	"/>
	<polyline fill="none" stroke="#2F2F2F" stroke-width="1.66" stroke-miterlimit="10" points="153.399,52.716 156.073,48.549 
		172.12,50.633 169.648,55.087 	"/>
	<polyline fill="none" stroke="#2F2F2F" stroke-width="1.66" stroke-miterlimit="10" points="187.858,57.741 190.239,53.67 
		204.354,55.707 202.035,59.81 	"/>
	<polyline fill="none" stroke="#2F2F2F" stroke-width="1.66" stroke-miterlimit="10" points="138.944,47.202 143.07,42.604 
		155.385,44.902 150.386,52.276 	"/>
	<polyline fill="none" stroke="#2F2F2F" stroke-width="1.66" stroke-miterlimit="10" points="170.876,50.474 173.64,47.202 
		185.261,48.836 180.408,56.656 	"/>
	<line fill="none" stroke="#2F2F2F" stroke-width="4" stroke-miterlimit="10" x1="155" y1="46" x2="155" y2="50"/>
	<polyline fill="none" stroke="#2F2F2F" stroke-width="1.66" stroke-miterlimit="10" points="185.261,48.836 187.197,53.67 
		185.261,57.364 	"/>
	
		<line fill="none" stroke="#2F2F2F" stroke-width="1.66" stroke-miterlimit="10" x1="204.354" y1="55.707" x2="213.181" y2="61.438"/>
	<polyline fill="none" stroke="#2F2F2F" stroke-width="1.66" stroke-miterlimit="10" points="203.522,55.585 206.43,51.042 
		219.987,53.313 215.291,61.744 	"/>
	<polyline fill="none" stroke="#2F2F2F" stroke-width="1.66" stroke-miterlimit="10" points="218.896,62.269 221.643,57.364 
		219.987,53.313 	"/>
	<polyline fill="none" stroke="#2F2F2F" stroke-width="1.66" stroke-miterlimit="10" points="225.358,63.213 228.285,58.57 
		242.949,60.894 239.463,68.424 	"/>
	<polyline fill="none" stroke="#2F2F2F" stroke-width="1.66" stroke-miterlimit="10" points="240.561,60.517 242.949,56.656 
		257.057,58.586 252.078,68.424 242.949,60.894 	"/>
	<polyline fill="none" stroke="#2F2F2F" stroke-width="1.66" stroke-miterlimit="10" points="242.091,73.472 242.949,71.652 
		250.691,78.29 258.159,65.014 257.057,58.586 	"/>
	<g>
		<path fill="#2F2F2F" d="M102.051,97.625l2.186,0.631c4.172,1.203,12.07,2.854,17.821-9.925c1.625-3.612,4.496-12.985-3.151-15.192
			c-9.536-2.751-15.225,9.89-16.787,13.362l-12.912-3.726c8.314-18.475,21.701-29.522,37.594-24.937
			c9.436,2.723,18.853,12.973,9.476,33.81c-4.501,10.002-11.784,14.962-16.884,16.316l-0.125,0.278
			c2.047,1.689,7.878,9.178,0.313,25.987c-8.377,18.614-24.148,28.973-38.352,24.875c-6.654-1.921-23.597-9.163-9.719-40.001
			l13.608,3.927l-0.162,0.11c-2.375,5.278-6.758,17.512,2.578,20.205c5.563,1.605,12.806-2.27,17.744-13.243
			c6.063-13.474-3.023-16.724-9.479-18.587L102.051,97.625z"/>
		<path fill="#2F2F2F" d="M162.864,66.988l31.487,9.085c24.036,6.936,16.125,36.984,7.623,55.876
			c-9.627,21.392-29.564,50.481-53.104,43.689l-30.891-8.913L162.864,66.988z M140.333,153.715l14.501,4.184
			c12.118,3.497,23.879-12.414,31.256-28.806c13.253-29.449,4.283-34.705-2.073-36.539l-14.303-4.127L140.333,153.715z"/>
	</g>
</g>
</svg>
