<?xml version="1.0" encoding="utf-8"?>
<!-- Generator: Adobe Illustrator 16.0.0, SVG Export Plug-In . SVG Version: 6.00 Build 0)  -->
<!DOCTYPE svg PUBLIC "-//W3C//DTD SVG 1.1//EN" "http://www.w3.org/Graphics/SVG/1.1/DTD/svg11.dtd" [
	<!ENTITY ns_extend "http://ns.adobe.com/Extensibility/1.0/">
	<!ENTITY ns_ai "http://ns.adobe.com/AdobeIllustrator/10.0/">
	<!ENTITY ns_graphs "http://ns.adobe.com/Graphs/1.0/">
	<!ENTITY ns_vars "http://ns.adobe.com/Variables/1.0/">
	<!ENTITY ns_imrep "http://ns.adobe.com/ImageReplacement/1.0/">
	<!ENTITY ns_sfw "http://ns.adobe.com/SaveForWeb/1.0/">
	<!ENTITY ns_custom "http://ns.adobe.com/GenericCustomNamespace/1.0/">
	<!ENTITY ns_adobe_xpath "http://ns.adobe.com/XPath/1.0/">
]>
<svg version="1.1" id="Ebene_1" xmlns:x="&ns_extend;" xmlns:i="&ns_ai;" xmlns:graph="&ns_graphs;"
	 xmlns="http://www.w3.org/2000/svg" xmlns:xlink="http://www.w3.org/1999/xlink" x="0px" y="0px" width="283.46px"
	 height="283.46px" viewBox="0 0 283.46 283.46" enable-background="new 0 0 283.46 283.46" xml:space="preserve">
<metadata>
	<sfw  xmlns="&ns_sfw;">
		<slices></slices>
		<sliceSourceBounds  width="269.919" height="248.843" y="-265.843" x="7.211" bottomLeftOrigin="true"></sliceSourceBounds>
	</sfw>
</metadata>
<g id="XMLID_1_">
	<g>
		<path fill="#FF7D00" d="M255.14,124.519c5.294,0,9.582,4.296,9.582,9.583c0,5.294-4.288,9.591-9.582,9.591
			c-5.295,0-9.583-4.297-9.583-9.591C245.557,128.815,249.845,124.519,255.14,124.519z"/>
		<path fill="#2E2F2F" d="M231.712,111.063c0.136,0.752,0.212,1.531,0.212,2.326c0,1.903-0.381,3.721-1.074,5.379l-0.601,1.243
			l-19.198,40.198l-0.575,1.193c-1.04,1.928-2.521,3.586-4.305,4.837c-0.381,0.271-0.77,0.517-1.176,0.744
			c-2.021,1.134-4.338,1.793-6.816,1.793H85.89c-2.478,0-4.795-0.659-6.816-1.793c-0.406-0.228-0.795-0.474-1.176-0.744
			c-1.784-1.251-3.264-2.909-4.305-4.837l-0.575-1.193l-19.198-40.198l-0.601-1.243c-0.693-1.658-1.074-3.476-1.074-5.379
			c0-0.795,0.076-1.573,0.211-2.326c0.625-3.738,2.749-6.994,5.743-9.092c2.266-1.59,5.023-2.529,8-2.529h151.869
			c2.978,0,5.734,0.939,8.001,2.529C228.964,104.069,231.087,107.325,231.712,111.063z M228.523,117.753
			c0.559-1.345,0.863-2.816,0.863-4.364c0-6.292-5.117-11.417-11.418-11.417h-7.992H74.092H66.1
			c-6.301,0-11.417,5.125-11.417,11.417c0,1.548,0.304,3.02,0.863,4.364l0.533,1.108l3.197,6.689l12.872,26.937l3.197,6.698
			l0.533,1.1c1.937,3.544,5.7,5.954,10.013,5.954h8.001h96.287h8.001c4.313,0,8.077-2.41,10.014-5.954l0.533-1.1l3.196-6.698
			l12.872-26.937l3.197-6.689L228.523,117.753z"/>
		<path fill="#FF7D00" d="M28.929,124.519c5.294,0,9.591,4.296,9.591,9.583c0,5.294-4.296,9.591-9.591,9.591
			s-9.582-4.297-9.582-9.591C19.347,128.815,23.635,124.519,28.929,124.519z"/>
	</g>
	<g>
		<path fill="none" stroke="#2F2F2F" stroke-width="1.6915" stroke-miterlimit="10" d="M231.712,111.063
			c-0.625-3.738-2.748-6.994-5.742-9.092c-2.267-1.59-5.023-2.529-8.001-2.529H66.1c-2.977,0-5.734,0.939-8,2.529
			c-2.994,2.098-5.117,5.354-5.743,9.092c-0.135,0.752-0.211,1.531-0.211,2.326c0,1.903,0.38,3.721,1.074,5.379l0.601,1.243
			l19.198,40.198l0.575,1.193c1.041,1.928,2.521,3.586,4.305,4.837c0.381,0.271,0.77,0.517,1.176,0.744
			c2.021,1.134,4.339,1.793,6.816,1.793h112.289c2.479,0,4.795-0.659,6.816-1.793c0.406-0.228,0.795-0.474,1.176-0.744
			c1.784-1.251,3.265-2.909,4.305-4.837l0.575-1.193l19.198-40.198l0.601-1.243c0.693-1.658,1.074-3.476,1.074-5.379
			C231.924,112.594,231.848,111.816,231.712,111.063z"/>
		<path fill="none" stroke="#2F2F2F" stroke-width="1.6915" stroke-miterlimit="10" d="M211.922,152.487l-3.196,6.698l-0.533,1.1
			c-1.937,3.544-5.7,5.954-10.014,5.954h-8.001H93.891H85.89c-4.313,0-8.077-2.41-10.013-5.954l-0.533-1.1l-3.197-6.698
			l-12.872-26.937l-3.197-6.689l-0.533-1.108c-0.559-1.345-0.863-2.816-0.863-4.364c0-6.292,5.117-11.417,11.417-11.417h7.992
			h135.885h7.992c6.301,0,11.418,5.125,11.418,11.417c0,1.548-0.305,3.02-0.863,4.364l-0.532,1.108l-3.197,6.689L211.922,152.487z"
			/>
		<path fill="none" stroke="#2F2F2F" stroke-width="4.2287" stroke-miterlimit="10" d="M264.722,134.102
			c0-5.286-4.288-9.583-9.582-9.583c-5.295,0-9.583,4.296-9.583,9.583c0,5.294,4.288,9.591,9.583,9.591
			C260.434,143.692,264.722,139.396,264.722,134.102z"/>
		<path fill="none" stroke="#2F2F2F" stroke-width="4.2287" stroke-miterlimit="10" d="M38.52,134.102
			c0-5.286-4.296-9.583-9.591-9.583s-9.582,4.296-9.582,9.583c0,5.294,4.288,9.591,9.582,9.591S38.52,139.396,38.52,134.102z"/>
	</g>
</g>
<g id="XMLID_2_">
	<g>
		<path fill="#FF7D00" d="M264.73,29.01c5.779,0,10.46,4.69,10.46,10.47s-4.681,10.47-10.46,10.47c-5.79,0-10.471-4.69-10.471-10.47
			S258.94,29.01,264.73,29.01z"/>
		<path fill="#FF7D00" d="M19.62,29.01c5.78,0,10.46,4.69,10.46,10.47S25.4,49.95,19.62,49.95c-5.79,0-10.47-4.69-10.47-10.47
			S13.83,29.01,19.62,29.01z"/>
	</g>
	<g>
		<path fill="none" stroke="#2F2F2F" stroke-width="4" stroke-miterlimit="10" d="M238,30.63c0-6.42-5.21-11.63-11.63-11.63H56.63
			C50.21,19,45,24.21,45,30.63v17.74C45,54.79,50.21,60,56.63,60h169.74c6.42,0,11.63-5.21,11.63-11.63V30.63z"/>
		<path fill="none" stroke="#2F2F2F" stroke-width="3.8783" stroke-miterlimit="10" d="M275.19,39.48
			c0-5.78-4.681-10.47-10.46-10.47c-5.79,0-10.471,4.69-10.471,10.47s4.681,10.47,10.471,10.47
			C270.51,49.95,275.19,45.26,275.19,39.48z"/>
		<path fill="none" stroke="#2F2F2F" stroke-width="3.8783" stroke-miterlimit="10" d="M30.08,39.48c0-5.78-4.68-10.47-10.46-10.47
			c-5.79,0-10.47,4.69-10.47,10.47s4.68,10.47,10.47,10.47C25.4,49.95,30.08,45.26,30.08,39.48z"/>
	</g>
</g>
<circle fill="none" stroke="#2F2F2F" stroke-width="3.8783" stroke-miterlimit="10" cx="45.857" cy="232.104" r="31.801"/>
<circle fill="none" stroke="#2F2F2F" stroke-width="3.8783" stroke-miterlimit="10" cx="142.039" cy="232.104" r="31.801"/>
<circle fill="none" stroke="#2F2F2F" stroke-width="3.8783" stroke-miterlimit="10" cx="238.221" cy="232.104" r="31.801"/>
</svg>
