<?xml version="1.0" encoding="utf-8"?>
<!-- Generator: Adobe Illustrator 16.0.0, SVG Export Plug-In . SVG Version: 6.00 Build 0)  -->
<!DOCTYPE svg PUBLIC "-//W3C//DTD SVG 1.1//EN" "http://www.w3.org/Graphics/SVG/1.1/DTD/svg11.dtd" [
	<!ENTITY ns_extend "http://ns.adobe.com/Extensibility/1.0/">
	<!ENTITY ns_ai "http://ns.adobe.com/AdobeIllustrator/10.0/">
	<!ENTITY ns_graphs "http://ns.adobe.com/Graphs/1.0/">
	<!ENTITY ns_vars "http://ns.adobe.com/Variables/1.0/">
	<!ENTITY ns_imrep "http://ns.adobe.com/ImageReplacement/1.0/">
	<!ENTITY ns_sfw "http://ns.adobe.com/SaveForWeb/1.0/">
	<!ENTITY ns_custom "http://ns.adobe.com/GenericCustomNamespace/1.0/">
	<!ENTITY ns_adobe_xpath "http://ns.adobe.com/XPath/1.0/">
]>
<svg version="1.1" id="Ebene_1" xmlns:x="&ns_extend;" xmlns:i="&ns_ai;" xmlns:graph="&ns_graphs;"
	 xmlns="http://www.w3.org/2000/svg" xmlns:xlink="http://www.w3.org/1999/xlink" x="0px" y="0px" width="283.46px"
	 height="283.46px" viewBox="0 0 283.46 283.46" enable-background="new 0 0 283.46 283.46" xml:space="preserve">
<metadata>
	<sfw  xmlns="&ns_sfw;">
		<slices></slices>
		<sliceSourceBounds  width="245.682" height="267.524" y="-276.502" x="18.659" bottomLeftOrigin="true"></sliceSourceBounds>
	</sfw>
</metadata>
<polyline fill="none" stroke="#FF7D00" stroke-width="2" stroke-linecap="round" stroke-linejoin="bevel" stroke-miterlimit="10" points="
	147.699,28.787 147.699,41.833 125.501,41.833 125.501,52 147.699,52 147.699,63 125.501,63 125.501,73.833 147.699,73.833 
	147.699,85 125.501,85 125.501,95.667 147.699,95.667 147.699,107 125.501,107 125.501,118 136.601,118 136.601,131.333 "/>
<polyline fill="none" stroke="#FF7D00" stroke-width="2" stroke-linecap="round" stroke-linejoin="bevel" stroke-miterlimit="10" points="
	125.501,254.176 125.501,248.75 147.699,248.75 147.699,237.416 125.501,237.416 125.501,226.75 147.699,226.75 147.699,215.584 
	125.501,215.584 125.501,204.75 147.699,204.75 147.699,193.75 125.501,193.75 125.501,183.584 147.699,183.584 147.699,170.537 
	136.601,170.347 136.601,166.56 "/>
<polyline fill="none" stroke="#FF7D00" stroke-width="2" stroke-linecap="round" stroke-linejoin="bevel" stroke-miterlimit="10" points="
	152.725,254.751 152.725,251 174.922,251 174.922,239.666 152.725,239.666 152.725,229 174.922,229 174.922,217.834 
	152.725,217.834 152.725,207 174.922,207 174.922,196 152.725,196 152.725,185.834 174.922,185.834 174.922,172.787 
	163.824,172.787 163.824,166.75 "/>
<polyline fill="none" stroke="#FF7D00" stroke-width="2" stroke-linecap="round" stroke-linejoin="bevel" stroke-miterlimit="10" points="
	220.922,222.816 220.922,216.832 198.725,216.832 198.725,206.166 220.922,206.166 220.922,195 198.725,195 198.725,184.166 
	220.922,184.166 220.922,173.166 198.725,173.166 198.725,163 209.823,163 209.823,158.625 204.167,158.625 204.125,151.979 
	191.667,151.979 191.667,170.334 181.167,170.334 181.167,151.979 171.667,151.979 171.667,158.625 163,158.625 "/>
<polyline fill="none" stroke="#FF7D00" stroke-width="2" stroke-linecap="round" stroke-linejoin="bevel" stroke-miterlimit="10" points="
	82.699,37.6 82.699,50.646 60.501,50.646 60.501,60.813 82.699,60.813 82.699,71.813 60.501,71.813 60.501,82.646 82.699,82.646 
	82.699,93.813 60.501,93.813 60.501,104.479 82.699,104.479 82.699,115.813 60.501,115.813 60.501,126.813 82.699,126.813 
	82.699,137.625 71.601,137.167 71.601,149.375 76.375,149.375 76.375,154.875 87.875,154.875 87.875,137.167 98.125,137.167 
	98.125,154.875 109.5,154.875 109.5,148.625 119.875,148.625 119.875,154.875 130.5,154.875 130.5,149.25 136.601,149.25 "/>
<polyline fill="none" stroke="#FF7D00" stroke-width="2" stroke-linecap="round" stroke-linejoin="bevel" stroke-miterlimit="10" points="
	174.979,33.649 174.866,47.667 152.668,47.667 152.668,57.833 174.866,57.833 174.866,68.833 152.668,68.833 152.668,79.667 
	174.866,79.667 174.866,90.833 152.668,90.833 152.668,101.5 174.866,101.5 174.866,112.833 152.668,112.833 152.668,123.833 
	163.768,123.833 163.768,131.333 "/>
<polyline fill="none" stroke="#FF7D00" stroke-width="2" stroke-linecap="round" stroke-linejoin="bevel" stroke-miterlimit="10" points="
	113.866,32.08 113.866,47.667 91.667,47.667 91.667,57.833 113.866,57.833 113.866,68.833 91.667,68.833 91.667,79.667 
	113.866,79.667 113.866,90.833 91.667,90.833 91.667,101.5 113.866,101.5 113.866,112.833 91.667,112.833 91.667,123.833 
	102.767,123.833 102.767,137.167 109,137.167 109,127.5 119.667,127.5 119.667,145.667 130.167,145.667 130.167,140 136.601,140 "/>
<polyline fill="none" stroke="#FF7D00" stroke-width="2" stroke-linecap="round" stroke-linejoin="bevel" stroke-miterlimit="10" points="
	136.601,158.625 130.875,158.625 130.875,168.375 120.5,168.375 120.5,158.625 109.625,158.625 109.625,169.707 98.551,169.707 
	98.551,158.625 87.875,158.625 87.875,169.707 77,169.707 77,158.625 61,158.625 57.313,162.313 65.313,170.313 57.344,178.281 
	41.156,162.094 29.987,162.094 "/>
<polyline fill="none" stroke="#FF7D00" stroke-width="2" stroke-linecap="round" stroke-linejoin="bevel" stroke-miterlimit="10" points="
	163,149.5 182.833,149.5 182.833,143.667 191.961,143.667 191.961,149.5 204.5,149.5 204.5,143.667 215.167,143.667 
	215.167,160.667 227,160.667 227,137.5 237,137.5 237,160.667 253.303,160.667 "/>
<polyline fill="none" stroke="#FF7D00" stroke-width="2" stroke-linecap="round" stroke-linejoin="bevel" stroke-miterlimit="10" points="
	163,140 169.333,140 169.333,127.833 180,127.833 180,140 190.667,140 190.667,127.833 201.833,127.833 201.833,140 207.5,140 
	207.5,124.833 224.167,124.833 224.167,114.833 235.833,114.833 235.833,134.167 254.576,134.167 "/>
<rect x="131.068" y="128.167" fill="#2E2F2F" width="11.063" height="5.5"/>
<rect x="131.068" y="137.25" fill="#2E2F2F" width="11.063" height="5.5"/>
<rect x="131.068" y="146.333" fill="#2E2F2F" width="11.063" height="5.5"/>
<rect x="131.068" y="155.416" fill="#2E2F2F" width="11.063" height="5.5"/>
<rect x="131.068" y="164.499" fill="#2E2F2F" width="11.063" height="5.5"/>
<rect x="158.291" y="128.167" fill="#2E2F2F" width="11.064" height="5.5"/>
<rect x="158.291" y="137.25" fill="#2E2F2F" width="11.064" height="5.5"/>
<rect x="158.291" y="146.334" fill="#2E2F2F" width="11.064" height="5.5"/>
<rect x="158.291" y="155.416" fill="#2E2F2F" width="11.064" height="5.5"/>
<rect x="158.291" y="164.5" fill="#2E2F2F" width="11.064" height="5.5"/>
<g>
	<g>
		<g>
			<path fill="none" stroke="#2F2F2F" stroke-width="19" stroke-linecap="round" stroke-linejoin="round" d="M187.022,38.136
				c-13.932-6.12-29.33-9.517-45.522-9.517c-62.596,0-113.341,50.745-113.341,113.341c0,20.728,5.566,40.151,15.283,56.866"/>
			<g>
				<polygon fill="#2F2F2F" points="195.421,8.978 222.844,63.045 162.308,59.771 				"/>
			</g>
		</g>
	</g>
	<g>
		<g>
			<path fill="none" stroke="#2F2F2F" stroke-width="19" stroke-linecap="round" stroke-linejoin="round" d="M99.146,247.118
				c13.084,5.277,27.379,8.183,42.354,8.183c62.597,0,113.341-50.744,113.341-113.341c0-21.133-5.787-40.914-15.86-57.847"/>
			<g>
				<polygon fill="#2F2F2F" points="91.657,276.502 62.585,223.304 123.193,224.715 				"/>
			</g>
		</g>
	</g>
</g>
</svg>
